<mxfile host="app.diagrams.net" modified="2023-08-27T16:27:31.450Z" agent="Mozilla/5.0 (Windows NT 10.0; Win64; x64) AppleWebKit/537.36 (KHTML, like Gecko) Chrome/116.0.0.0 Safari/537.36" etag="nik1CQohfdcB7MNfH90m" version="21.6.6" type="device">
  <diagram id="C5RBs43oDa-KdzZeNtuy" name="Page-1">
    <mxGraphModel dx="1728" dy="890" grid="1" gridSize="10" guides="1" tooltips="1" connect="1" arrows="1" fold="1" page="1" pageScale="1" pageWidth="827" pageHeight="1169" math="0" shadow="0">
      <root>
        <mxCell id="WIyWlLk6GJQsqaUBKTNV-0" />
        <mxCell id="WIyWlLk6GJQsqaUBKTNV-1" parent="WIyWlLk6GJQsqaUBKTNV-0" />
        <mxCell id="rCRB1byIDggcyroh9Buf-44" style="edgeStyle=orthogonalEdgeStyle;rounded=0;orthogonalLoop=1;jettySize=auto;html=1;entryX=0.5;entryY=0;entryDx=0;entryDy=0;" edge="1" parent="WIyWlLk6GJQsqaUBKTNV-1" source="rCRB1byIDggcyroh9Buf-0" target="rCRB1byIDggcyroh9Buf-1">
          <mxGeometry relative="1" as="geometry" />
        </mxCell>
        <mxCell id="rCRB1byIDggcyroh9Buf-0" value="Start" style="ellipse;whiteSpace=wrap;html=1;" vertex="1" parent="WIyWlLk6GJQsqaUBKTNV-1">
          <mxGeometry x="325" y="60" width="130" height="80" as="geometry" />
        </mxCell>
        <mxCell id="rCRB1byIDggcyroh9Buf-7" style="edgeStyle=orthogonalEdgeStyle;rounded=0;orthogonalLoop=1;jettySize=auto;html=1;entryX=0.5;entryY=0;entryDx=0;entryDy=0;" edge="1" parent="WIyWlLk6GJQsqaUBKTNV-1" source="rCRB1byIDggcyroh9Buf-1" target="rCRB1byIDggcyroh9Buf-2">
          <mxGeometry relative="1" as="geometry" />
        </mxCell>
        <mxCell id="rCRB1byIDggcyroh9Buf-1" value="input&lt;br&gt;&lt;br&gt;length of arr1 = a&lt;br&gt;arr.a&lt;br&gt;index = 0&lt;br&gt;length of arr2 = count&lt;br&gt;array.count&lt;br&gt;index2 = 0&lt;br&gt;maxChar = b" style="rounded=0;whiteSpace=wrap;html=1;" vertex="1" parent="WIyWlLk6GJQsqaUBKTNV-1">
          <mxGeometry x="290" y="180" width="200" height="140" as="geometry" />
        </mxCell>
        <mxCell id="rCRB1byIDggcyroh9Buf-10" style="edgeStyle=orthogonalEdgeStyle;rounded=0;orthogonalLoop=1;jettySize=auto;html=1;entryX=0.5;entryY=0;entryDx=0;entryDy=0;" edge="1" parent="WIyWlLk6GJQsqaUBKTNV-1" source="rCRB1byIDggcyroh9Buf-2" target="rCRB1byIDggcyroh9Buf-4">
          <mxGeometry relative="1" as="geometry" />
        </mxCell>
        <mxCell id="rCRB1byIDggcyroh9Buf-12" style="edgeStyle=orthogonalEdgeStyle;rounded=0;orthogonalLoop=1;jettySize=auto;html=1;entryX=0.5;entryY=0;entryDx=0;entryDy=0;" edge="1" parent="WIyWlLk6GJQsqaUBKTNV-1" source="rCRB1byIDggcyroh9Buf-2" target="rCRB1byIDggcyroh9Buf-3">
          <mxGeometry relative="1" as="geometry" />
        </mxCell>
        <mxCell id="rCRB1byIDggcyroh9Buf-2" value="index &amp;lt; arr.a" style="rhombus;whiteSpace=wrap;html=1;" vertex="1" parent="WIyWlLk6GJQsqaUBKTNV-1">
          <mxGeometry x="325" y="370" width="130" height="120" as="geometry" />
        </mxCell>
        <mxCell id="rCRB1byIDggcyroh9Buf-15" style="edgeStyle=orthogonalEdgeStyle;rounded=0;orthogonalLoop=1;jettySize=auto;html=1;entryX=0.491;entryY=0.036;entryDx=0;entryDy=0;entryPerimeter=0;" edge="1" parent="WIyWlLk6GJQsqaUBKTNV-1" source="rCRB1byIDggcyroh9Buf-3" target="rCRB1byIDggcyroh9Buf-13">
          <mxGeometry relative="1" as="geometry" />
        </mxCell>
        <mxCell id="rCRB1byIDggcyroh9Buf-34" style="edgeStyle=orthogonalEdgeStyle;rounded=0;orthogonalLoop=1;jettySize=auto;html=1;exitX=1;exitY=0.5;exitDx=0;exitDy=0;entryX=0.5;entryY=0;entryDx=0;entryDy=0;" edge="1" parent="WIyWlLk6GJQsqaUBKTNV-1" source="rCRB1byIDggcyroh9Buf-3" target="rCRB1byIDggcyroh9Buf-32">
          <mxGeometry relative="1" as="geometry" />
        </mxCell>
        <mxCell id="rCRB1byIDggcyroh9Buf-3" value="index &amp;lt; arr.a" style="rhombus;whiteSpace=wrap;html=1;" vertex="1" parent="WIyWlLk6GJQsqaUBKTNV-1">
          <mxGeometry x="640" y="460" width="130" height="120" as="geometry" />
        </mxCell>
        <mxCell id="rCRB1byIDggcyroh9Buf-37" style="edgeStyle=orthogonalEdgeStyle;rounded=0;orthogonalLoop=1;jettySize=auto;html=1;entryX=0.5;entryY=0;entryDx=0;entryDy=0;" edge="1" parent="WIyWlLk6GJQsqaUBKTNV-1" source="rCRB1byIDggcyroh9Buf-4" target="rCRB1byIDggcyroh9Buf-36">
          <mxGeometry relative="1" as="geometry" />
        </mxCell>
        <mxCell id="rCRB1byIDggcyroh9Buf-40" style="edgeStyle=orthogonalEdgeStyle;rounded=0;orthogonalLoop=1;jettySize=auto;html=1;exitX=1;exitY=0.5;exitDx=0;exitDy=0;entryX=0.996;entryY=0.693;entryDx=0;entryDy=0;entryPerimeter=0;" edge="1" parent="WIyWlLk6GJQsqaUBKTNV-1" source="rCRB1byIDggcyroh9Buf-4" target="rCRB1byIDggcyroh9Buf-39">
          <mxGeometry relative="1" as="geometry">
            <mxPoint x="220.1128571428571" y="800" as="targetPoint" />
            <mxPoint x="219.97" y="520" as="sourcePoint" />
            <Array as="points">
              <mxPoint x="230" y="520" />
              <mxPoint x="230" y="789" />
              <mxPoint x="204" y="789" />
            </Array>
          </mxGeometry>
        </mxCell>
        <mxCell id="rCRB1byIDggcyroh9Buf-4" value="arr[index] &amp;lt;= b" style="rhombus;whiteSpace=wrap;html=1;" vertex="1" parent="WIyWlLk6GJQsqaUBKTNV-1">
          <mxGeometry x="70" y="460" width="130" height="120" as="geometry" />
        </mxCell>
        <mxCell id="rCRB1byIDggcyroh9Buf-8" value="false" style="text;html=1;strokeColor=none;fillColor=none;align=center;verticalAlign=middle;whiteSpace=wrap;rounded=0;" vertex="1" parent="WIyWlLk6GJQsqaUBKTNV-1">
          <mxGeometry x="480" y="410" width="60" height="30" as="geometry" />
        </mxCell>
        <mxCell id="rCRB1byIDggcyroh9Buf-9" value="true" style="text;html=1;strokeColor=none;fillColor=none;align=center;verticalAlign=middle;whiteSpace=wrap;rounded=0;" vertex="1" parent="WIyWlLk6GJQsqaUBKTNV-1">
          <mxGeometry x="230" y="410" width="60" height="30" as="geometry" />
        </mxCell>
        <mxCell id="rCRB1byIDggcyroh9Buf-28" style="edgeStyle=orthogonalEdgeStyle;rounded=0;orthogonalLoop=1;jettySize=auto;html=1;entryX=0.5;entryY=0;entryDx=0;entryDy=0;" edge="1" parent="WIyWlLk6GJQsqaUBKTNV-1" source="rCRB1byIDggcyroh9Buf-13" target="rCRB1byIDggcyroh9Buf-17">
          <mxGeometry relative="1" as="geometry" />
        </mxCell>
        <mxCell id="rCRB1byIDggcyroh9Buf-29" style="edgeStyle=orthogonalEdgeStyle;rounded=0;orthogonalLoop=1;jettySize=auto;html=1;entryX=0.996;entryY=0.659;entryDx=0;entryDy=0;entryPerimeter=0;" edge="1" parent="WIyWlLk6GJQsqaUBKTNV-1" source="rCRB1byIDggcyroh9Buf-13" target="rCRB1byIDggcyroh9Buf-20">
          <mxGeometry relative="1" as="geometry">
            <mxPoint x="660" y="971" as="targetPoint" />
            <Array as="points">
              <mxPoint x="670" y="645" />
              <mxPoint x="670" y="906" />
            </Array>
          </mxGeometry>
        </mxCell>
        <mxCell id="rCRB1byIDggcyroh9Buf-13" value="arr[index] &amp;lt;= b" style="rhombus;whiteSpace=wrap;html=1;" vertex="1" parent="WIyWlLk6GJQsqaUBKTNV-1">
          <mxGeometry x="500" y="585" width="130" height="120" as="geometry" />
        </mxCell>
        <mxCell id="rCRB1byIDggcyroh9Buf-16" value="true" style="text;html=1;strokeColor=none;fillColor=none;align=center;verticalAlign=middle;whiteSpace=wrap;rounded=0;" vertex="1" parent="WIyWlLk6GJQsqaUBKTNV-1">
          <mxGeometry x="570" y="500" width="60" height="30" as="geometry" />
        </mxCell>
        <mxCell id="rCRB1byIDggcyroh9Buf-30" style="edgeStyle=orthogonalEdgeStyle;rounded=0;orthogonalLoop=1;jettySize=auto;html=1;entryX=0.308;entryY=0.167;entryDx=0;entryDy=0;entryPerimeter=0;" edge="1" parent="WIyWlLk6GJQsqaUBKTNV-1" source="rCRB1byIDggcyroh9Buf-17">
          <mxGeometry relative="1" as="geometry">
            <mxPoint x="630" y="832.4985714285715" as="sourcePoint" />
            <mxPoint x="675.0400000000002" y="487.51" as="targetPoint" />
            <Array as="points">
              <mxPoint x="480" y="820" />
              <mxPoint x="480" y="487" />
            </Array>
          </mxGeometry>
        </mxCell>
        <mxCell id="rCRB1byIDggcyroh9Buf-17" value="array[index2] = arr[index]&lt;br&gt;index++&lt;br&gt;index2++" style="rounded=0;whiteSpace=wrap;html=1;" vertex="1" parent="WIyWlLk6GJQsqaUBKTNV-1">
          <mxGeometry x="495" y="760" width="140" height="70" as="geometry" />
        </mxCell>
        <mxCell id="rCRB1byIDggcyroh9Buf-19" value="true" style="text;html=1;strokeColor=none;fillColor=none;align=center;verticalAlign=middle;whiteSpace=wrap;rounded=0;" vertex="1" parent="WIyWlLk6GJQsqaUBKTNV-1">
          <mxGeometry x="520" y="720" width="60" height="30" as="geometry" />
        </mxCell>
        <mxCell id="rCRB1byIDggcyroh9Buf-31" style="edgeStyle=orthogonalEdgeStyle;rounded=0;orthogonalLoop=1;jettySize=auto;html=1;" edge="1" parent="WIyWlLk6GJQsqaUBKTNV-1" source="rCRB1byIDggcyroh9Buf-20" target="rCRB1byIDggcyroh9Buf-3">
          <mxGeometry relative="1" as="geometry">
            <Array as="points">
              <mxPoint x="450" y="900" />
              <mxPoint x="450" y="470" />
            </Array>
          </mxGeometry>
        </mxCell>
        <mxCell id="rCRB1byIDggcyroh9Buf-20" value="index++" style="rounded=0;whiteSpace=wrap;html=1;" vertex="1" parent="WIyWlLk6GJQsqaUBKTNV-1">
          <mxGeometry x="500" y="860" width="140" height="70" as="geometry" />
        </mxCell>
        <mxCell id="rCRB1byIDggcyroh9Buf-24" value="false" style="text;html=1;strokeColor=none;fillColor=none;align=center;verticalAlign=middle;whiteSpace=wrap;rounded=0;" vertex="1" parent="WIyWlLk6GJQsqaUBKTNV-1">
          <mxGeometry x="620" y="620" width="60" height="30" as="geometry" />
        </mxCell>
        <mxCell id="rCRB1byIDggcyroh9Buf-32" value="Print arr.count" style="shape=document;whiteSpace=wrap;html=1;boundedLbl=1;" vertex="1" parent="WIyWlLk6GJQsqaUBKTNV-1">
          <mxGeometry x="780" y="590" width="120" height="80" as="geometry" />
        </mxCell>
        <mxCell id="rCRB1byIDggcyroh9Buf-35" value="false" style="text;html=1;strokeColor=none;fillColor=none;align=center;verticalAlign=middle;whiteSpace=wrap;rounded=0;" vertex="1" parent="WIyWlLk6GJQsqaUBKTNV-1">
          <mxGeometry x="767" y="500" width="60" height="30" as="geometry" />
        </mxCell>
        <mxCell id="rCRB1byIDggcyroh9Buf-43" style="edgeStyle=orthogonalEdgeStyle;rounded=0;orthogonalLoop=1;jettySize=auto;html=1;" edge="1" parent="WIyWlLk6GJQsqaUBKTNV-1" source="rCRB1byIDggcyroh9Buf-36" target="rCRB1byIDggcyroh9Buf-2">
          <mxGeometry relative="1" as="geometry">
            <Array as="points">
              <mxPoint x="50" y="675" />
              <mxPoint x="50" y="410" />
            </Array>
          </mxGeometry>
        </mxCell>
        <mxCell id="rCRB1byIDggcyroh9Buf-36" value="count++&lt;br&gt;index++" style="rounded=0;whiteSpace=wrap;html=1;" vertex="1" parent="WIyWlLk6GJQsqaUBKTNV-1">
          <mxGeometry x="65" y="640" width="140" height="70" as="geometry" />
        </mxCell>
        <mxCell id="rCRB1byIDggcyroh9Buf-38" value="true" style="text;html=1;strokeColor=none;fillColor=none;align=center;verticalAlign=middle;whiteSpace=wrap;rounded=0;" vertex="1" parent="WIyWlLk6GJQsqaUBKTNV-1">
          <mxGeometry x="90" y="590" width="60" height="30" as="geometry" />
        </mxCell>
        <mxCell id="rCRB1byIDggcyroh9Buf-42" style="edgeStyle=orthogonalEdgeStyle;rounded=0;orthogonalLoop=1;jettySize=auto;html=1;" edge="1" parent="WIyWlLk6GJQsqaUBKTNV-1" source="rCRB1byIDggcyroh9Buf-39" target="rCRB1byIDggcyroh9Buf-2">
          <mxGeometry relative="1" as="geometry">
            <Array as="points">
              <mxPoint x="20" y="775" />
              <mxPoint x="20" y="390" />
            </Array>
          </mxGeometry>
        </mxCell>
        <mxCell id="rCRB1byIDggcyroh9Buf-39" value="index++" style="rounded=0;whiteSpace=wrap;html=1;" vertex="1" parent="WIyWlLk6GJQsqaUBKTNV-1">
          <mxGeometry x="65" y="740" width="140" height="70" as="geometry" />
        </mxCell>
        <mxCell id="rCRB1byIDggcyroh9Buf-41" value="false" style="text;html=1;strokeColor=none;fillColor=none;align=center;verticalAlign=middle;whiteSpace=wrap;rounded=0;" vertex="1" parent="WIyWlLk6GJQsqaUBKTNV-1">
          <mxGeometry x="190" y="500" width="60" height="30" as="geometry" />
        </mxCell>
      </root>
    </mxGraphModel>
  </diagram>
</mxfile>
